<?xml version="1.0" encoding="UTF-8"?>
<svg id="Capa_1" xmlns="http://www.w3.org/2000/svg" version="1.1" xmlns:xlink="http://www.w3.org/1999/xlink" viewBox="0 0 100 100">
  <!-- Generator: Adobe Illustrator 30.2.1, SVG Export Plug-In . SVG Version: 2.1.1 Build 1)  -->
  <defs>
    <style>
      .st0 {
        fill: #1e1d41;
      }

      .st0, .st1, .st2, .st3, .st4 {
        display: none;
      }

      .st1 {
        fill: #1f3769;
      }

      .st5 {
        fill: #f9b233;
      }

      .st3 {
        font-family: PTSerif-Regular, 'PT Serif';
        font-size: 10px;
      }

      .st3, .st6 {
        fill: #ce941d;
      }

      .st4 {
        fill: url(#Degradado_sin_nombre_211);
      }
    </style>
    <linearGradient id="Degradado_sin_nombre_211" data-name="Degradado sin nombre 211" x1="21.58" y1="86.91" x2="78.81" y2="29.67" gradientUnits="userSpaceOnUse">
      <stop offset="0" stop-color="#fffad2"/>
      <stop offset="0" stop-color="#fef6c0"/>
      <stop offset="0" stop-color="#feec93"/>
      <stop offset="0" stop-color="#fddc4c"/>
      <stop offset="0" stop-color="#fccb00"/>
      <stop offset=".36" stop-color="#c9961a"/>
      <stop offset=".87" stop-color="#e9cd75"/>
      <stop offset="1" stop-color="#f2dc8e"/>
      <stop offset="1" stop-color="#fffad2"/>
    </linearGradient>
  </defs>
  <rect class="st1" x="-3.01" y="-.93" width="105.07" height="103.08"/>
  <rect class="st0" x="-3.26" y="-.8" width="105.07" height="103.08" rx="31.5" ry="31.5"/>
  <g class="st2">
    <polygon class="st5" points="33.71 51.45 33.15 52.67 37.11 52.67 38.64 49.31 43.39 38.89 41.48 34.42 38.64 40.65 33.71 51.45"/>
    <polygon class="st5" points="21.88 70.43 19.14 70.43 19.95 68.66 21.57 65.1 21.88 64.43 23.99 59.77 27.23 52.67 33.71 38.48 38.62 27.71 38.64 27.68 41.14 22.23 43.99 28.93 45.89 33.41 48.01 38.35 50.36 43.88 52.1 47.95 52.1 47.96 53.58 51.44 54.11 52.67 58.41 52.67 55.79 46.51 54.3 43.03 52.58 39 52.58 38.99 50.23 33.47 48.12 28.53 46.21 24.06 44.96 21.09 43.43 17.53 33.71 17.53 33.71 21.09 38.14 21.09 36.92 23.72 33.71 30.77 22.09 56.22 21.88 56.71 20.47 59.77 18.04 65.1 17.14 67.1 16.42 68.66 15.61 70.43 11.8 70.43 11.8 73.59 21.88 73.59 21.88 70.43"/>
    <polygon class="st5" points="84.02 70.43 83.27 68.66 83.26 68.66 83.26 68.63 81.76 65.1 79.47 59.77 77.96 56.22 73.2 45.04 66.67 29.74 65.02 25.87 63.53 22.38 62.98 21.09 66.67 21.09 66.67 17.53 57.51 17.53 57.39 17.81 55.89 21.09 54.64 23.84 52.64 28.2 54.99 33.72 56.98 29.36 59.73 23.33 60.96 26.19 61.39 27.2 62.88 30.68 66.67 39.6 72.24 52.67 73.2 54.89 73.77 56.22 75.27 59.77 77.54 65.1 79.07 68.66 79.82 70.43 78.52 70.43 78.52 73.59 88.2 73.59 88.2 70.43 84.02 70.43"/>
    <path class="st5" d="M75.84,73.59l-1.35-3.16-.75-1.77-.54-1.28-.98-2.28h-3.84l1.51,3.56.75,1.77,1.35,3.16,1.21,2.81.89,2.12h-4.64l-2.12-4.93-.66-1.56-.68-1.6-.76-1.77-1.52-3.56h-23.04l2.43-5.33h26.86l-1.53-3.55-1.51-3.55-.25-.59-5.71-13.41-.82-1.9-1.48-3.48-1.98,4.4h0s1.49,3.49,1.49,3.49l2.79,6.52,2.12,4.97,1.5,3.55h-19.86l1.63-3.55,1.51-3.3h0s-2.35-5.54-2.35-5.54l-4.04,8.84-1.62,3.55h-8.32l-1.62,3.55-2.43,5.33-1.62,3.56-.81,1.77-1.44,3.16-1.73,3.81-.52,1.12h-4.22v3.95h21.5v-3.95h-4.09l2.25-4.93,1.44-3.16.4-.88.41-.89h21.91v.06l.72,1.71,1.35,3.16,2.11,4.93h-4.18v3.95h22.3v-3.95h-5.31l-2.11-4.93ZM35.8,65.1l-1.63,3.56-.46,1.01-.35.76-1.44,3.16-2.25,4.93h-4.35l2.25-4.93,1.44-3.16.81-1.77,1.61-3.56,2.28-4.99.15-.34h4.37l-2.43,5.33Z"/>
  </g>
  <path class="st4" d="M38.64,40.65l2.84-6.23,1.91,4.47-4.75,10.42-1.53,3.36h-3.96l.56-1.22,4.93-10.8ZM21.88,70.43h-2.74l.81-1.77,1.62-3.56.31-.67,2.11-4.66,3.24-7.1,6.48-14.19,4.91-10.77.02-.03,2.5-5.45,2.85,6.7,1.9,4.48,2.12,4.94,2.35,5.53,1.74,4.07h0s1.48,3.49,1.48,3.49l.53,1.23h4.3l-2.62-6.16-1.49-3.48-1.72-4.03h0s-2.35-5.53-2.35-5.53l-2.11-4.94-1.91-4.47-1.25-2.97-1.53-3.56h-9.72v3.56h4.43l-1.22,2.63-3.21,7.05-11.62,25.45-.21.49-1.41,3.06-2.43,5.33-.9,2-.72,1.56-.81,1.77h-3.81v3.16h10.08v-3.16ZM84.02,70.43l-.75-1.77h-.01v-.03l-1.5-3.53-2.29-5.33-1.51-3.55-4.76-11.18-6.53-15.3-1.65-3.87-1.49-3.49-.55-1.29h3.69v-3.56h-9.16l-.12.28-1.5,3.28-1.25,2.75-2,4.36,2.35,5.52,1.99-4.36,2.75-6.03,1.23,2.86.43,1.01,1.49,3.48,3.79,8.92,5.57,13.07.96,2.22.57,1.33,1.5,3.55,2.27,5.33,1.53,3.56.75,1.77h-1.3v3.16h9.68v-3.16h-4.18ZM77.95,78.52h5.31v3.95h-22.3v-3.95h4.18l-2.11-4.93-1.35-3.16-.72-1.71v-.06h-21.91l-.41.89-.4.88-1.44,3.16-2.25,4.93h4.09v3.95h-21.5v-3.95h4.22l.52-1.12,1.73-3.81,1.44-3.16.81-1.77,1.62-3.56,2.43-5.33,1.62-3.55h8.32l1.62-3.55,4.04-8.84,2.35,5.53h0s-1.51,3.31-1.51,3.31l-1.63,3.55h19.86l-1.5-3.55-2.12-4.97-2.79-6.52-1.49-3.48h0s1.98-4.41,1.98-4.41l1.48,3.48.82,1.9,5.71,13.41.25.59,1.51,3.55,1.53,3.55h-26.86l-2.43,5.33h23.04l1.52,3.56.76,1.77.68,1.6.66,1.56,2.12,4.93h4.64l-.89-2.12-1.21-2.81-1.35-3.16-.75-1.77-1.51-3.56h3.84l.98,2.28.54,1.28.75,1.77,1.35,3.16,2.11,4.93ZM38.23,59.77h-4.37l-.15.34-2.28,4.99-1.61,3.56-.81,1.77-1.44,3.16-2.25,4.93h4.35l2.25-4.93,1.44-3.16.35-.76.46-1.01,1.63-3.56,2.43-5.33Z"/>
  <path class="st6" d="M38.64,40.65l2.84-6.23,1.91,4.47-4.75,10.42-1.53,3.36h-3.96l.56-1.22,4.93-10.8ZM21.88,70.43h-2.74l.81-1.77,1.62-3.56.31-.67,2.11-4.66,3.24-7.1,6.48-14.19,4.91-10.77.02-.03,2.5-5.45,2.85,6.7,1.9,4.48,2.12,4.94,2.35,5.53,1.74,4.07h0s1.48,3.49,1.48,3.49l.53,1.23h4.3l-2.62-6.16-1.49-3.48-1.72-4.03h0s-2.35-5.53-2.35-5.53l-2.11-4.94-1.91-4.47-1.25-2.97-1.53-3.56h-9.72v3.56h4.43l-1.22,2.63-3.21,7.05-11.62,25.45-.21.49-1.41,3.06-2.43,5.33-.9,2-.72,1.56-.81,1.77h-3.81v3.16h10.08v-3.16ZM84.02,70.43l-.75-1.77h-.01v-.03l-1.5-3.53-2.29-5.33-1.51-3.55-4.76-11.18-6.53-15.3-1.65-3.87-1.49-3.49-.55-1.29h3.69v-3.56h-9.16l-.12.28-1.5,3.28-1.25,2.75-2,4.36,2.35,5.52,1.99-4.36,2.75-6.03,1.23,2.86.43,1.01,1.49,3.48,3.79,8.92,5.57,13.07.96,2.22.57,1.33,1.5,3.55,2.27,5.33,1.53,3.56.75,1.77h-1.3v3.16h9.68v-3.16h-4.18ZM77.95,78.52h5.31v3.95h-22.3v-3.95h4.18l-2.11-4.93-1.35-3.16-.72-1.71v-.06h-21.91l-.41.89-.4.88-1.44,3.16-2.25,4.93h4.09v3.95h-21.5v-3.95h4.22l.52-1.12,1.73-3.81,1.44-3.16.81-1.77,1.62-3.56,2.43-5.33,1.62-3.55h8.32l1.62-3.55,4.04-8.84,2.35,5.53h0s-1.51,3.31-1.51,3.31l-1.63,3.55h19.86l-1.5-3.55-2.12-4.97-2.79-6.52-1.49-3.48h0s1.98-4.41,1.98-4.41l1.48,3.48.82,1.9,5.71,13.41.25.59,1.51,3.55,1.53,3.55h-26.86l-2.43,5.33h23.04l1.52,3.56.76,1.77.68,1.6.66,1.56,2.12,4.93h4.64l-.89-2.12-1.21-2.81-1.35-3.16-.75-1.77-1.51-3.56h3.84l.98,2.28.54,1.28.75,1.77,1.35,3.16,2.11,4.93ZM38.23,59.77h-4.37l-.15.34-2.28,4.99-1.61,3.56-.81,1.77-1.44,3.16-2.25,4.93h4.35l2.25-4.93,1.44-3.16.35-.76.46-1.01,1.63-3.56,2.43-5.33Z"/>
  <text class="st3" transform="translate(1.73 85.02)"><tspan x="0" y="0">PROPERTY SERVICES</tspan></text>
  <rect class="st0" x="27.36" y="69.78" width=".31" height=".31"/>
</svg>